<svg xmlns="http://www.w3.org/2000/svg" version="1.1" xmlns:xlink="http://www.w3.org/1999/xlink" xmlns:svgjs="http://svgjs.com/svgjs" x="0" y="0" viewBox="0 0 512 512" style="enable-background:new 0 0 512 512" xml:space="preserve"><g><path xmlns="http://www.w3.org/2000/svg" style="" d="M512,173.419L252.982,50.725c-15.809-7.44-33.341-10.499-50.757-9.108  C51.299,53.667,0,159.775,0,206.452h512V173.419z" fill="#fff082" data-original="#fff082"/><path xmlns="http://www.w3.org/2000/svg" style="" d="M505.152,314.517c3.926-0.828,6.848-4.09,6.848-8.102V173.419H33.032  C14.789,173.419,0,188.208,0,206.452v231.226c0,18.243,14.789,33.032,33.032,33.032h168.04c3.471,0,6.565-2.177,7.716-5.451  c5.653-16.065,20.956-27.581,38.954-27.581s33.301,11.516,38.954,27.581c1.152,3.274,4.245,5.451,7.716,5.451h209.33  c4.561,0,8.258-3.698,8.258-8.258v-75.19c0-4.013-2.922-7.274-6.848-8.102c-14.957-3.153-26.184-16.426-26.184-32.321  C478.968,330.943,490.195,317.67,505.152,314.517z" fill="#ffdc64" data-original="#ffdc64"/><g xmlns="http://www.w3.org/2000/svg"><circle style="" cx="421.16" cy="256" r="16.516" fill="#e1a546" data-original="#e1a546"/><circle style="" cx="206.45" cy="371.61" r="16.516" fill="#e1a546" data-original="#e1a546"/></g><circle xmlns="http://www.w3.org/2000/svg" style="" cx="82.58" cy="396.39" r="24.774" fill="#ffc850" data-original="#ffc850"/><path xmlns="http://www.w3.org/2000/svg" style="" d="M82.581,371.613c-10.052,0-18.662,6.012-22.547,14.614c3.107-1.403,6.529-2.227,10.16-2.227  c13.682,0,24.774,11.092,24.774,24.774c0,3.631-0.824,7.053-2.227,10.16c8.602-3.885,14.614-12.495,14.614-22.547  C107.355,382.705,96.263,371.613,82.581,371.613z" fill="#e1a546" data-original="#e1a546"/><circle xmlns="http://www.w3.org/2000/svg" style="" cx="297.29" cy="239.48" r="24.774" fill="#ffc850" data-original="#ffc850"/><path xmlns="http://www.w3.org/2000/svg" style="" d="M297.29,214.71c-10.052,0-18.662,6.012-22.547,14.614c3.107-1.403,6.529-2.227,10.16-2.227  c13.682,0,24.774,11.092,24.774,24.774c0,3.631-0.824,7.053-2.227,10.16c8.602-3.885,14.614-12.495,14.614-22.547  C322.065,225.801,310.973,214.71,297.29,214.71z" fill="#e1a546" data-original="#e1a546"/><circle xmlns="http://www.w3.org/2000/svg" style="" cx="132.13" cy="272.52" r="41.29" fill="#ffc850" data-original="#ffc850"/><path xmlns="http://www.w3.org/2000/svg" style="" d="M132.129,231.226c-15.665,0-29.129,8.827-36.126,21.681c5.858-3.189,12.471-5.165,19.609-5.165  c22.804,0,41.29,18.486,41.29,41.29c0,7.139-1.976,13.752-5.165,19.609c12.854-6.997,21.681-20.46,21.681-36.125  C173.419,249.712,154.933,231.226,132.129,231.226z" fill="#e1a546" data-original="#e1a546"/><circle xmlns="http://www.w3.org/2000/svg" style="" cx="355.1" cy="371.61" r="41.29" fill="#ffc850" data-original="#ffc850"/><path xmlns="http://www.w3.org/2000/svg" style="" d="M355.097,330.323c-15.665,0-29.129,8.827-36.125,21.681c5.858-3.189,12.471-5.165,19.609-5.165  c22.804,0,41.29,18.486,41.29,41.29c0,7.139-1.976,13.752-5.165,19.609c12.854-6.997,21.681-20.46,21.681-36.125  C396.387,348.809,377.901,330.323,355.097,330.323z" fill="#e1a546" data-original="#e1a546"/><path xmlns="http://www.w3.org/2000/svg" style="" d="M0,214.71L0,214.71c18.243,0,33.032,14.789,33.032,33.032v148.645  c0,27.365,22.184,49.548,49.548,49.548h111.484c6.841,0,12.387,5.546,12.387,12.387l0,0c0,6.841-5.546,12.387-12.387,12.387H33.032  C14.789,470.71,0,455.921,0,437.677V214.71z" fill="#ffc850" data-original="#ffc850"/><g xmlns="http://www.w3.org/2000/svg"></g><g xmlns="http://www.w3.org/2000/svg"></g><g xmlns="http://www.w3.org/2000/svg"></g><g xmlns="http://www.w3.org/2000/svg"></g><g xmlns="http://www.w3.org/2000/svg"></g><g xmlns="http://www.w3.org/2000/svg"></g><g xmlns="http://www.w3.org/2000/svg"></g><g xmlns="http://www.w3.org/2000/svg"></g><g xmlns="http://www.w3.org/2000/svg"></g><g xmlns="http://www.w3.org/2000/svg"></g><g xmlns="http://www.w3.org/2000/svg"></g><g xmlns="http://www.w3.org/2000/svg"></g><g xmlns="http://www.w3.org/2000/svg"></g><g xmlns="http://www.w3.org/2000/svg"></g><g xmlns="http://www.w3.org/2000/svg"></g></g></svg>