<svg xmlns="http://www.w3.org/2000/svg" version="1.1" xmlns:xlink="http://www.w3.org/1999/xlink" xmlns:svgjs="http://svgjs.com/svgjs" x="0" y="0" viewBox="0 0 512 512" style="enable-background:new 0 0 512 512" xml:space="preserve" class=""><g><g xmlns="http://www.w3.org/2000/svg"><path d="m306.155 84.711-50.155-13.66-50.155 13.66c-1.976 13.278-6.72 25.899-13.83 37.086l63.985 13.661 63.984-13.66c-7.109-11.188-11.854-23.809-13.829-37.087z" fill="#f4fbff" data-original="#f4fbff"/><path d="m335.21 340.494c-3.536-5.6-5.413-12.087-5.413-18.71v-14.536c0-9.309 3.704-18.235 10.294-24.809 3.745-3.735 5.849-8.807 5.849-14.097l-14.534-54.71 14.534-54.675c0-5.435-2.222-10.635-6.151-14.391l-5.238-5.009c-5.59-5.345-10.471-11.314-14.567-17.759h-127.968c-4.096 6.445-8.977 12.415-14.567 17.759l-5.238 5.009c-3.929 3.756-6.151 8.955-6.151 14.391l14.534 54.693-14.534 54.692c0 5.289 2.105 10.361 5.849 14.097 6.59 6.574 10.294 15.5 10.294 24.809v14.536c0 6.623-1.877 13.11-5.413 18.71l-19.131 30.296c-2.984 4.725-4.567 10.198-4.567 15.786v108.617c0 9.282 7.525 16.807 16.807 16.807h172.204c9.282 0 16.807-7.525 16.807-16.807v-108.617c0-5.588-1.584-11.061-4.567-15.786z" fill="#f6e781" data-original="#f6e781"/><path d="m354.342 370.79-19.131-30.296c-3.536-5.6-5.413-12.087-5.413-18.71v-14.536c0-9.309 3.704-18.235 10.294-24.809 3.745-3.735 5.849-8.807 5.849-14.097l-20.262-54.692 20.262-54.693c0-5.435-2.222-10.635-6.151-14.391l-5.238-5.009c-5.59-5.345-10.471-11.314-14.567-17.759h-23.965c5.6 6.623 8.714 15.047 8.714 23.803v102.137c0 5.289-2.105 10.361-5.849 14.097-6.59 6.574-10.294 15.5-10.294 24.809v9.63c0 9.828 2.785 19.455 8.033 27.764l13.892 21.999c4.695 7.435 7.187 16.047 7.187 24.84v86.754c0 18.648-15.117 33.765-33.765 33.765h-130.847v3.796c0 9.282 7.525 16.807 16.807 16.807h172.204c9.282 0 16.807-7.525 16.807-16.807v-108.616c0-5.588-1.584-11.062-4.567-15.786z" fill="#ffd064" data-original="#ffd064"/><path d="m306.155 57.392h-100.31c-2.653 0-4.804-2.151-4.804-4.804v-47.784c0-2.653 2.151-4.804 4.804-4.804h100.31c2.653 0 4.804 2.151 4.804 4.804v47.784c0 2.653-2.151 4.804-4.804 4.804z" fill="#78c2a4" data-original="#78c2a4"/><path d="m166.059 158.957h179.882v109.385h-179.882z" fill="#78c2a4" data-original="#78c2a4"/><path d="m304.734 158.957v88.781c0 5.289-2.105 10.361-5.849 14.097-1.979 1.975-3.698 4.162-5.135 6.507h52.191v-109.385z" fill="#66b394" data-original="#66b394"/><path d="m270.425 84.711c2.244 5.753 5.042 11.273 8.352 16.483 4.096 6.445 8.978 12.415 14.567 17.759.946.904 1.838 1.854 2.675 2.844h23.965c-7.11-11.187-11.854-23.808-13.83-37.086z" fill="#e4f6ff" data-original="#e4f6ff"/><path d="m306.092 215.08c-5.207 4.995-23.709 21.44-43.065 23.011-14.347 1.164-27.227-9.578-27.496-23.97-.258-13.781 10.835-25.034 24.558-25.034 20.38 0 40.511 17.865 45.995 23.123.817.784.826 2.085.008 2.87z" fill="#cbe7af" data-original="#cbe7af"/><path d="m304.734 210.943v5.413c.521-.48.976-.909 1.359-1.276.818-.785.809-2.085-.009-2.87-.382-.365-.833-.791-1.35-1.267z" fill="#bcdf95" data-original="#bcdf95"/><path d="m228.499 65.118c-4.267 0-7.726-3.459-7.726-7.726v-22.703c0-4.267 3.459-7.726 7.726-7.726s7.726 3.459 7.726 7.726v22.702c0 4.267-3.459 7.727-7.726 7.727zm35.227-7.727v-22.702c0-4.267-3.459-7.726-7.726-7.726s-7.726 3.459-7.726 7.726v22.702c0 4.267 3.459 7.726 7.726 7.726 4.268.001 7.726-3.459 7.726-7.726zm27.501 0v-22.702c0-4.267-3.459-7.726-7.726-7.726s-7.726 3.459-7.726 7.726v22.702c0 4.267 3.459 7.726 7.726 7.726s7.726-3.459 7.726-7.726z" fill="#5aa687" data-original="#5aa687"/><path d="m203.413 485.905c-4.267 0-7.726-3.459-7.726-7.726v-69.846c0-4.267 3.459-7.726 7.726-7.726s7.726 3.459 7.726 7.726v69.846c0 4.267-3.459 7.726-7.726 7.726zm14.192-126.705 5.278-16.332c2.05-6.355 3.134-13.645 3.134-21.08v-22.54c0-4.267-3.459-7.726-7.726-7.726s-7.726 3.459-7.726 7.726v22.54c0 5.846-.825 11.494-2.386 16.332l-5.277 16.328c-1.312 4.06.915 8.416 4.976 9.728.79.255 1.591.376 2.378.376 3.26 0 6.292-2.082 7.349-5.352zm98.709 118.979v-69.846c0-4.267-3.459-7.726-7.726-7.726s-7.726 3.459-7.726 7.726v69.846c0 4.267 3.459 7.726 7.726 7.726s7.726-3.459 7.726-7.726zm-12.19-114.003c4.06-1.312 6.288-5.668 4.976-9.728l-5.277-16.324c-1.561-4.842-2.387-10.49-2.387-16.336v-22.54c0-4.267-3.459-7.726-7.726-7.726s-7.726 3.459-7.726 7.726v22.54c0 7.436 1.083 14.725 3.135 21.085l5.278 16.328c1.057 3.271 4.089 5.352 7.35 5.352.786-.001 1.587-.122 2.377-.377zm-40.398 117.424v-73.267c0-4.267-3.459-7.726-7.726-7.726s-7.726 3.459-7.726 7.726v73.267c0 4.267 3.459 7.726 7.726 7.726 4.268 0 7.726-3.459 7.726-7.726zm0-124.776v-57.576c0-4.267-3.459-7.726-7.726-7.726s-7.726 3.459-7.726 7.726v57.576c0 4.267 3.459 7.726 7.726 7.726 4.268 0 7.726-3.459 7.726-7.726zm73.798 25.75c0-4.267-3.459-7.726-7.726-7.726h-147.595c-4.267 0-7.726 3.459-7.726 7.726s3.459 7.726 7.726 7.726h147.595c4.267 0 7.726-3.459 7.726-7.726z" fill="#ffd064" data-original="#ffd064"/><g fill="#ffc250"><path d="m329.798 374.848h-12.096v15.452h12.096c4.268 0 7.726-3.459 7.726-7.726s-3.459-7.726-7.726-7.726z" fill="#ffc250" data-original="#ffc250"/><path d="m316.314 478.179v-10.936c-2.075 7-6.358 13.051-12.043 17.345 1.232.832 2.718 1.317 4.316 1.317 4.268 0 7.727-3.459 7.727-7.726z" fill="#ffc250" data-original="#ffc250"/><path d="m302.61 333.52c-.772-3.677-1.174-7.657-1.174-11.732v-22.54c0-4.267-3.459-7.726-7.726-7.726-1.964 0-3.756.733-5.119 1.94v2.813c0 9.828 2.785 19.455 8.033 27.764z" fill="#ffc250" data-original="#ffc250"/></g><path d="m269.724 221.376h-62.891c-4.267 0-7.726-3.459-7.726-7.726s3.459-7.726 7.726-7.726h62.891c4.268 0 7.726 3.459 7.726 7.726s-3.458 7.726-7.726 7.726z" fill="#b3e59f" data-original="#b3e59f"/><path d="m306.155 57.392h-100.31c-2.653 0-4.804 2.151-4.804 4.804v17.712c0 2.653 2.151 4.804 4.804 4.804h100.31c2.653 0 4.804-2.151 4.804-4.804v-17.713c0-2.653-2.151-4.803-4.804-4.803z" fill="#66b394" data-original="#66b394"/></g></g></svg>