<svg xmlns="http://www.w3.org/2000/svg" width="409.667" height="511.548" viewBox="0 0 409.667 511.548">
  <g id="sale" transform="translate(-50.94)">
    <g id="Group_1" data-name="Group 1">
      <path id="Path_1" data-name="Path 1" d="M306.248,338.724c-4.329,0-8.658,3.936-8.658,17.12s4.329,17.12,8.658,17.12,8.658-3.936,8.658-17.12S310.577,338.724,306.248,338.724Z" fill="#fff"/>
      <path id="Path_2" data-name="Path 2" d="M205.3,273.787c-4.329,0-8.658,3.936-8.658,17.12s4.329,17.12,8.658,17.12,8.658-3.936,8.658-17.12S209.63,273.787,205.3,273.787Z" fill="#fff"/>
      <path id="Path_3" data-name="Path 3" d="M405.561,181.48c-43.372-47.9-69.147-90.072-83.134-117.013-15.148-29.181-20.112-47.276-20.15-47.42L297.768,0l-16.1,7.183c-1.882.839-46.376,21.13-71.307,70.991-12.515,25.031-15.018,52.9-14.913,71.87a23.136,23.136,0,0,1-39.5,16.465l-30-30-10.319,14.229c-1.071,1.477-26.289,36.256-30.88,43.205a204.688,204.688,0,0,0,171.023,317.6c112.945,0,204.832-91.888,204.832-204.833C460.608,265.764,440.544,220.118,405.561,181.48ZM306.248,394.215c-20.858,0-36.6-13.774-36.6-38.371,0-24.4,15.742-38.372,36.6-38.372s36.6,13.971,36.6,38.372C342.849,380.441,327.106,394.215,306.248,394.215ZM286.177,254.5h33.255l-94.06,137.744H192.117ZM168.7,290.907c0-24.4,15.742-38.371,36.6-38.371s36.6,13.971,36.6,38.371c0,24.6-15.742,38.372-36.6,38.372S168.7,315.5,168.7,290.907Z" fill="#fff"/>
    </g>
  </g>
</svg>
