<svg xmlns="http://www.w3.org/2000/svg" version="1.1" xmlns:xlink="http://www.w3.org/1999/xlink" xmlns:svgjs="http://svgjs.com/svgjs" x="0" y="0" viewBox="0 0 48 48" style="enable-background:new 0 0 512 512" xml:space="preserve"><g><g xmlns="http://www.w3.org/2000/svg" id="_12-tomato" data-name="12-tomato"><path d="m45 26.553c0 10.217-9.4 20.447-21 20.447s-21-10.23-21-20.447 9.4-15.553 21-15.553 21 5.335 21 15.553z" fill="#ff1f1f" data-original="#ff1f1f"/><path d="m26.34 9a9.561 9.561 0 0 0 .66 1 1.993 1.993 0 0 1 -2 2h-1.12a1.967 1.967 0 0 1 -1.78-1.09 9.329 9.329 0 0 1 -.68-2c-.71-3.05-.63-7.29.92-7.91h3.5a8.532 8.532 0 0 0 .5 8z" fill="#00ac0d" data-original="#00ac0d"/><path d="m28 9c1.81-.05 4.95.53 6 2 1.93 2.7 5.72 1.12 5.99 1.01-2 3.72-9.99 1.99-9.99 1.99 1 4.67-1 7-1 7-3 0-6-6-6-6-2 .93-5 6-5 6-4-2.8-2-6-2-6a7.943 7.943 0 0 1 -7-4c5 0 4 .07 7-1a12.133 12.133 0 0 1 5-1l.42-.09a9.329 9.329 0 0 0 .68 2 1.967 1.967 0 0 0 1.78 1.09h1.12a1.993 1.993 0 0 0 2-2 9.561 9.561 0 0 1 -.66-1z" fill="#007700" data-original="#007700"/><path d="m45 26.553c0 10.217-9.4 20.447-21 20.447s-21-10.23-21-20.447 9.4-15.553 21-15.553 21 5.335 21 15.553z" fill="#ff1f1f" data-original="#ff1f1f"/><path d="m7 21.553a13.965 13.965 0 0 1 1.274-5.936 13.436 13.436 0 0 0 -5.274 10.936c0 10.217 9.4 20.447 21 20.447a21.541 21.541 0 0 0 18.251-10.815 20.9 20.9 0 0 1 -14.251 5.815c-11.6 0-21-10.23-21-20.447z" fill="#cb0303" data-original="#cb0303"/><path d="m26.34 9a9.561 9.561 0 0 0 .66 1 1.993 1.993 0 0 1 -2 2h-1.12a1.967 1.967 0 0 1 -1.78-1.09 9.329 9.329 0 0 1 -.68-2c-.71-3.05-.63-7.29.92-7.91h3.5a8.532 8.532 0 0 0 .5 8z" fill="#008906" data-original="#008906"/><path d="m28 9c1.81-.05 4.95.53 6 2 1.93 2.7 5.72 1.12 5.99 1.01-2 3.72-9.99 1.99-9.99 1.99 1 4.67-1 7-1 7-3 0-6-6-6-6-2 .93-5 6-5 6-4-2.8-2-6-2-6a7.943 7.943 0 0 1 -7-4c5 0 4 .07 7-1a12.133 12.133 0 0 1 5-1l.42-.09a9.329 9.329 0 0 0 .68 2 1.967 1.967 0 0 0 1.78 1.09h1.12a1.993 1.993 0 0 0 2-2 9.561 9.561 0 0 1 -.66-1z" fill="#007700" data-original="#007700"/><path d="m18 23s2.553-5.07 4.812-6c0 0 3.388 6 6.776 6a10.044 10.044 0 0 0 1.412-8s5.309 1.648 8.721.613a16.916 16.916 0 0 0 -1.559-1.092 4.94 4.94 0 0 1 -1.448-.388 18.519 18.519 0 0 1 -6.714-.133c1 4.67-1 7-1 7-3 0-6-6-6-6-2 .93-5 6-5 6-4-2.8-2-6-2-6a7.919 7.919 0 0 1 -4.559-1.369 18.451 18.451 0 0 0 -2.307 1.327 10.221 10.221 0 0 0 4.866 1.042s-.518 4.2 4 7z" fill="#aa1313" data-original="#aa1313"/><path d="m31 15a10.119 10.119 0 0 1 .264 3.04c5.847 2.415 9.736 6.951 9.736 13.513a18.307 18.307 0 0 1 -1.326 6.694 22.558 22.558 0 0 0 2.577-2.062q-.333.567-.7 1.116l.042-.06.141-.215c.139-.214.273-.429.4-.647.049-.082.1-.164.146-.247.123-.21.241-.421.356-.635.049-.091.1-.182.146-.274q.16-.311.312-.627c.047-.1.1-.2.141-.3.094-.2.182-.41.269-.616.046-.108.092-.216.135-.325.08-.2.155-.4.229-.605.042-.115.085-.23.124-.346.069-.2.131-.4.193-.6.036-.12.075-.239.109-.36.057-.2.107-.4.157-.6.031-.124.065-.248.093-.373.046-.2.084-.4.123-.6.024-.125.052-.25.073-.376.036-.2.063-.411.091-.616.017-.122.037-.243.051-.364.026-.222.043-.444.06-.667.008-.105.02-.211.027-.316q.029-.492.029-.983a13.636 13.636 0 0 0 -6.837-12.031 16.892 16.892 0 0 1 1.558 1.091c-3.41 1.039-8.719-.609-8.719-.609z" fill="#ff5d03" data-original="#ff5d03"/><path d="m39.721 15.613a16.892 16.892 0 0 0 -1.558-1.091c-.3-.183-.584-.371-.894-.54-.182.055-.364.11-.554.152-.21.046-.423.084-.638.117-.116.018-.231.033-.348.047s-.262.03-.393.041c-.116.011-.231.022-.347.03-.208.013-.414.021-.62.026-.127 0-.251 0-.376 0s-.228 0-.341 0-.242 0-.362-.009c-.189-.007-.375-.017-.556-.029l-.343-.026-.291-.031-.308-.031c-.137-.015-.268-.031-.393-.047-.107-.013-.2-.026-.3-.04l-.238-.035-.194-.03-.259-.044-.144-.026-.146-.028-.056-.01-.062-.009a11.215 11.215 0 0 1 .217 3.63c.357.128.7.268 1.047.41a10.119 10.119 0 0 0 -.264-3.04s5.309 1.648 8.721.613z" fill="#cb0303" data-original="#cb0303"/><g fill="#00ac0d"><path d="m36.261 12.465c.11.023.219.041.329.056-.11-.015-.22-.033-.329-.056z" fill="#00ac0d" data-original="#00ac0d"/><path d="m38.94 12.35c.081-.021.16-.041.234-.062-.074.021-.153.042-.234.062z" fill="#00ac0d" data-original="#00ac0d"/><path d="m36.719 12.538c.122.013.243.021.364.025-.121-.004-.242-.012-.364-.025z" fill="#00ac0d" data-original="#00ac0d"/><path d="m38.513 12.445c.116-.023.228-.047.335-.072-.107.027-.219.049-.335.072z" fill="#00ac0d" data-original="#00ac0d"/><path d="m37.619 12.559a6.722 6.722 0 0 0 .861-.108 6.929 6.929 0 0 1 -.861.108z" fill="#00ac0d" data-original="#00ac0d"/><path d="m35.355 12.154c.1.046.19.09.287.127-.096-.037-.192-.081-.287-.127z" fill="#00ac0d" data-original="#00ac0d"/><path d="m26.967 10.329a1.782 1.782 0 0 0 .033-.329 1.983 1.983 0 0 1 -.033.329z" fill="#00ac0d" data-original="#00ac0d"/><path d="m30.026 14.144c-.01-.049-.015-.1-.026-.144.011.05.013.093.023.143z" fill="#00ac0d" data-original="#00ac0d"/><path d="m34.491 11.553c.09.084.18.167.274.239-.094-.072-.184-.155-.274-.239z" fill="#00ac0d" data-original="#00ac0d"/><path d="m39.287 12.255.161-.049z" fill="#00ac0d" data-original="#00ac0d"/><path d="m34.919 11.9c.09.062.181.122.274.174-.093-.054-.184-.114-.274-.174z" fill="#00ac0d" data-original="#00ac0d"/><path d="m35.805 12.34c.1.034.2.064.3.089-.098-.029-.199-.055-.3-.089z" fill="#00ac0d" data-original="#00ac0d"/><path d="m37.609 12.559c-.142.008-.288.011-.435.008.148.003.293 0 .435-.008z" fill="#00ac0d" data-original="#00ac0d"/><path d="m34.366 11.438a3.805 3.805 0 0 1 -.366-.438 3.892 3.892 0 0 0 .366.438z" fill="#00ac0d" data-original="#00ac0d"/><path d="m39.576 12.164.085-.03z" fill="#00ac0d" data-original="#00ac0d"/></g><path d="m35.642 12.281c.054.021.109.04.163.059-.054-.019-.105-.04-.163-.059z" fill="#00ce23" data-original="#00ce23"/><path d="m35.193 12.072c.054.029.108.055.162.082-.055-.027-.108-.054-.162-.082z" fill="#00ce23" data-original="#00ce23"/><path d="m26.9 10.608a2 2 0 0 0 .07-.279 2.371 2.371 0 0 1 -.07.279z" fill="#00ce23" data-original="#00ce23"/><path d="m36.109 12.429c.051.013.1.025.152.036-.051-.011-.101-.023-.152-.036z" fill="#00ce23" data-original="#00ce23"/><path d="m34.765 11.792c.05.039.1.071.154.106-.052-.035-.104-.067-.154-.106z" fill="#00ce23" data-original="#00ce23"/><path d="m36.59 12.521c.043.006.086.013.129.017-.043-.004-.086-.011-.129-.017z" fill="#00ce23" data-original="#00ce23"/><path d="m38.848 12.373.092-.023z" fill="#00ce23" data-original="#00ce23"/><path d="m38.48 12.451.033-.006z" fill="#00ce23" data-original="#00ce23"/><path d="m39.8 12.084-.139.05c.052-.018.1-.034.139-.05z" fill="#00ce23" data-original="#00ce23"/><path d="m39.448 12.206.128-.042z" fill="#00ce23" data-original="#00ce23"/><path d="" fill="#00ce23" data-original="#00ce23"/><path d="m37.174 12.567c-.03 0-.061 0-.091 0 .03-.003.061 0 .091 0z" fill="#00ce23" data-original="#00ce23"/><path d="m39.174 12.288.113-.033z" fill="#00ce23" data-original="#00ce23"/><path d="m34.491 11.553c-.041-.04-.085-.074-.125-.115.04.041.084.075.125.115z" fill="#00ce23" data-original="#00ce23"/><path d="m39.8 12.084c-.041.016-.087.032-.139.05l-.085.03-.128.042-.161.049-.113.033c-.074.021-.153.041-.234.062l-.092.023c-.107.025-.219.049-.335.072l-.033.006a6.722 6.722 0 0 1 -.861.108h-.01c-.142.008-.287.011-.435.008-.03 0-.061 0-.091 0-.121 0-.242-.012-.364-.025-.043 0-.086-.011-.129-.017-.11-.015-.219-.033-.329-.056-.051-.011-.1-.023-.152-.036-.1-.025-.2-.055-.3-.089-.054-.019-.109-.038-.163-.059-.1-.037-.192-.081-.287-.127-.054-.027-.108-.053-.162-.082-.093-.052-.184-.112-.274-.174-.052-.035-.1-.067-.154-.106-.094-.072-.184-.155-.274-.239-.041-.04-.085-.074-.125-.115a3.892 3.892 0 0 1 -.37-.442c-1.05-1.47-4.19-2.05-6-2h-1.66a9.561 9.561 0 0 0 .66 1 1.782 1.782 0 0 1 -.033.329 2 2 0 0 1 -.07.279c2.066 1.292 7.41 3.966 12.903 1.476z" fill="#00ce23" data-original="#00ce23"/><path d="m26.786 10.887-.012-.011a1.964 1.964 0 0 1 -1.21 1.034 1.975 1.975 0 0 0 1.222-1.023z" fill="#00ac0d" data-original="#00ac0d"/><path d="m29.13 20.824c.417-.6 1.673-2.829.893-6.681a31.643 31.643 0 0 1 -3.992-1.065z" fill="#00ce23" data-original="#00ce23"/><path d="m39.8 12.084c-5.493 2.49-10.837-.189-12.9-1.476a2.052 2.052 0 0 1 -.111.279 2.051 2.051 0 0 1 -1.789 1.113h-1.12a2.024 2.024 0 0 1 -.939-.243 20.656 20.656 0 0 0 3.09 1.321 31.643 31.643 0 0 0 3.992 1.065c-.01-.05-.012-.093-.023-.143 0 0 7.99 1.73 9.99-1.99z" fill="#00ac0d" data-original="#00ac0d"/><path d="m21.215 10.632a11.818 11.818 0 0 0 1.577 1.045 1.9 1.9 0 0 1 -.692-.767c-.1-.191-.179-.421-.264-.646-.185.123-.397.246-.621.368z" fill="#00ac0d" data-original="#00ac0d"/><path d="m21.42 8.91c.068.29.147.558.23.816-.081-.263-.162-.526-.23-.816z" fill="#00ac0d" data-original="#00ac0d"/><path d="m21.65 9.726c.059.19.121.365.186.538-.065-.172-.126-.353-.186-.538z" fill="#008906" data-original="#008906"/><path d="m21.215 10.632c.224-.122.436-.245.621-.368-.065-.173-.127-.348-.186-.538-.083-.258-.162-.526-.23-.816l-.42.09c-.462 0-.89.029-1.3.069a6.941 6.941 0 0 0 1.515 1.563z" fill="#00ac0d" data-original="#00ac0d"/><path d="m23.88 12a2 2 0 0 1 -1.456-.623 9.58 9.58 0 0 0 -4.377 9.544c.376-.621 3.095-5.057 4.953-5.921l1-3z" fill="#008906" data-original="#008906"/><path d="m22.792 11.677c-.324-.18-.626-.366-.912-.557l-2.974 2.974a1 1 0 0 0 .192 1.565l.788.473a1 1 0 0 0 1.161-.094l3.958-3.35a19.3 19.3 0 0 1 -2.064-.931c-.05-.027-.101-.049-.149-.08z" fill="#025602" data-original="#025602"/><path d="m25 12h-1.12a1.872 1.872 0 0 1 -.492-.067 2.009 2.009 0 0 1 -.447-.176 19.3 19.3 0 0 0 2.064.931l1.995-1.688-.242-.061a1.986 1.986 0 0 1 -1.758 1.061z" fill="#016601" data-original="#016601"/><path d="m22.792 11.677a1.918 1.918 0 0 1 -.394-.331 1.8 1.8 0 0 1 -.3-.436v-.007l-.217.217c.286.191.588.377.912.557z" fill="#016601" data-original="#016601"/><path d="m27 10a9.561 9.561 0 0 1 -.66-1 8.532 8.532 0 0 1 -.5-8h-3.5a1.158 1.158 0 0 0 -.3.185c.291 4.967 2.397 8.815 4.96 8.815z" fill="#00ce23" data-original="#00ce23"/><ellipse cx="37" cy="20" fill="#f6fafd" rx="1.65" ry="2.297" transform="matrix(.707 -.707 .707 .707 -3.301 32.035)" data-original="#f6fafd"/><ellipse cx="41" cy="21" fill="#f6fafd" rx=".825" ry="1.148" transform="matrix(.707 -.707 .707 .707 -2.836 35.157)" data-original="#f6fafd"/><ellipse cx="31" cy="12" fill="#b3ffd2" rx=".825" ry="1.148" transform="matrix(.707 -.707 .707 .707 .599 25.445)" data-original="#b3ffd2"/><ellipse cx="37.746" cy="23.5" fill="#f6fafd" rx=".413" ry=".574" transform="matrix(.707 -.707 .707 .707 -5.558 33.588)" data-original="#f6fafd"/><ellipse cx="28.746" cy="10.5" fill="#b3ffd2" rx=".413" ry=".574" transform="matrix(.707 -.707 .707 .707 .999 23.411)" data-original="#b3ffd2"/><ellipse cx="16" cy="42" fill="#aa1313" rx="1.65" ry="2.297" transform="matrix(.707 -.707 .707 .707 -25.019 23.629)" data-original="#aa1313"/><ellipse cx="12" cy="39" fill="#aa1313" rx=".825" ry="1.148" transform="matrix(.707 -.707 .707 .707 -24.069 19.921)" data-original="#aa1313"/><ellipse cx="13.746" cy="38.5" fill="#aa1313" rx=".413" ry=".574" transform="matrix(.707 -.707 .707 .707 -23.204 21.009)" data-original="#aa1313"/></g></g></svg>